<?xml version="1.0" encoding="UTF-8" standalone="no"?>
<!-- Generator: Avocode 1.1.1 - http://avocode.com -->
<svg xmlns="http://www.w3.org/2000/svg" xmlns:xlink="http://www.w3.org/1999/xlink" width="40" height="84" viewBox="0 0 40 84">
    <desc>Created with Avocode</desc>
    <defs>
        <filter id="filter-1" x="-50%" y="-50%" width="200%" height="200%">
            <feOffset dx="0.5" dy="0.9" in="SourceAlpha" result="shadowOffset1" />
            <feGaussianBlur in="shadowOffset1" result="shadowBlur1" stdDeviation="1" />
            <feColorMatrix values="0 0 0 0 0.8313725490196079   0 0 0 0 0.788235294117647   0 0 0 0 0.7647058823529411   0 0 0 1 0" type="matrix" in="shadowBlur1" result="shadowMatrix1" />
            <feMerge>
                <feMergeNode in="shadowMatrix1" />
                <feMergeNode in="SourceGraphic" />
            </feMerge>
        </filter>
    </defs>
    <path d="M11.2,0.01C5.01,0.01,-0.01,4.97,-0.01,11.09C-0.01,11.09,-0.01,16.62,-0.01,16.62C-0.01,22.065698199672664,3.9647334622161594,26.59293209333522,9.329999999999995,27.200027495908344C9.33,40.58229732968421,9.33,67.38,9.33,67.38C9.33,69.93,11.42,72,14,72C15.720006636212124,72,17.222233814155405,71.07999290078264,17.113345345391718,68.9199881165504C16.852505510951154,68.40388790936859,16.8,68.3,16.8,68.3C16.8,68.3,16.8,55.38,16.8,55.38C16.8,55.38,17.73750670241288,54.45254698876581,18.670000000000012,53.530053619302926C18.67000000000001,51.20181604383421,18.670000000000005,48.70966960271959,18.66999999999999,46.159946380697036C17.73750670241286,45.23745301123417,16.8,44.31,16.8,44.31C16.8,44.31,17.73750670241288,43.38254698876581,18.670000000000012,42.460053619302954C18.67000000000001,40.59294345788069,18.67000000000001,38.73357149986316,18.67000000000001,36.929946380697054C17.737506702412876,36.00745301123418,16.8,35.08,16.8,35.08C16.8,35.08,16.8,31.39,16.8,31.39C16.8,31.39,17.737506702412873,30.46254698876582,18.670000000000005,29.54005361930295C18.669999999999998,28.66445211040793,18.669999999999998,27.912861129247922,18.669999999999998,27.199404824331424C24.026492333756295,26.591535778370417,28,22.064858416360774,28,16.62C28,16.62,28,11.09,28,11.09C28,4.97,22.98,0.01,16.8,0.01C16.8,0.01,11.2,0.01,11.2,0.01C11.2,0.01,11.2,0.01,11.2,0.01M12.13,11.09C12.13,11.09,12.13,11.09,12.13,11.09C12.13,11.09,15.86,11.09,15.86,11.09C17.41,11.09,18.67,12.33,18.67,13.86C18.67,15.38,17.41,16.62,15.86,16.62C15.86,16.62,12.13,16.62,12.13,16.62C10.58,16.62,9.33,15.38,9.33,13.86C9.33,12.33,10.58,11.09,12.13,11.09" fill="#ffffff" filter="url(#filter-1)" />
</svg>