<?xml version="1.0" encoding="UTF-8" standalone="no"?>
<!-- Generator: Avocode 1.1.1 - http://avocode.com -->
<svg xmlns="http://www.w3.org/2000/svg" xmlns:xlink="http://www.w3.org/1999/xlink" width="46" height="36" viewBox="0 0 46 36">
    <desc>Created with Avocode</desc>
    <path d="M11,0C11,0,46,0,46,0C46,0,46,6,46,6C46,6,11,6,11,6C11,6,11,0,11,0M0,0C0,0,7,0,7,0C7,0,7,6,7,6C7,6,0,6,0,6C0,6,0,0,0,0" fill="#757474" />
    <path d="M11,10C11,10,46,10,46,10C46,10,46,16,46,16C46,16,11,16,11,16C11,16,11,10,11,10M0,10C0,10,7,10,7,10C7,10,7,16,7,16C7,16,0,16,0,16C0,16,0,10,0,10" fill="#757474" />
    <path d="M11,20C11,20,46,20,46,20C46,20,46,26,46,26C46,26,11,26,11,26C11,26,11,20,11,20M0,20C0,20,7,20,7,20C7,20,7,26,7,26C7,26,0,26,0,26C0,26,0,20,0,20" fill="#757474" />
    <path d="M11,30C11,30,46,30,46,30C46,30,46,36,46,36C46,36,11,36,11,36C11,36,11,30,11,30M0,30C0,30,7,30,7,30C7,30,7,36,7,36C7,36,0,36,0,36C0,36,0,30,0,30" fill="#757474" />
</svg>