<?xml version="1.0" encoding="UTF-8" standalone="no"?>
<!-- Generator: Avocode 1.1.1 - http://avocode.com -->
<svg xmlns="http://www.w3.org/2000/svg" xmlns:xlink="http://www.w3.org/1999/xlink" width="26" height="35" viewBox="0 0 26 35">
    <desc>Created with Avocode</desc>
    <path d="M4.896842105263158,16C2.3979062603878116,16,0,16,0,16C0,16,0,32,0,32C0,32,6.547878127074973,32,8.09189602446483,32C8.932695384726204,33.87585197376277,10.890386433138726,34.99,13.11,34.99C13.11,34.99,16.33,34.99,16.33,34.99C19.89,34.99,24.78,32.14,24.78,28.63C24.78,28.63,25.99,19.09,25.99,19.09C25.99,15.57,23.11,12.72,19.55,12.72C19.55,12.72,15.838300124586468,12.72,14.660895051477913,12.720000000000002C16.492433576609002,9.263471576212144,16.41328462304882,6.668458983726338,15.73,3.57C14.72,-1,10.1,-0.4,9.9,1.68C9.69,3.77,10.2,4.17,7.78,8.74C5.687105263157894,12.717368421052631,4.725443213296399,16.091412742382275,4.896842105263158,16" fill="#787878" />
</svg>