<?xml version="1.0" encoding="UTF-8" standalone="no"?>
<!-- Generator: Avocode 1.1.1 - http://avocode.com -->
<svg xmlns="http://www.w3.org/2000/svg" xmlns:xlink="http://www.w3.org/1999/xlink" width="85" height="96" viewBox="0 0 85 96">
    <desc>Created with Avocode</desc>
    <defs>
        <filter id="filter-1" x="-50%" y="-50%" width="200%" height="200%">
            <feOffset dx="0.5" dy="0.9" in="SourceAlpha" result="shadowOffset1" />
            <feGaussianBlur in="shadowOffset1" result="shadowBlur1" stdDeviation="1" />
            <feColorMatrix values="0 0 0 0 0.8313725490196079   0 0 0 0 0.788235294117647   0 0 0 0 0.7647058823529411   0 0 0 1 0" type="matrix" in="shadowBlur1" result="shadowMatrix1" />
            <feMerge>
                <feMergeNode in="shadowMatrix1" />
                <feMergeNode in="SourceGraphic" />
            </feMerge>
        </filter>
        <filter id="filter-2" x="-50%" y="-50%" width="200%" height="200%">
            <feOffset dx="0.5" dy="0.9" in="SourceAlpha" result="shadowOffset1" />
            <feGaussianBlur in="shadowOffset1" result="shadowBlur1" stdDeviation="1" />
            <feColorMatrix values="0 0 0 0 0.8313725490196079   0 0 0 0 0.788235294117647   0 0 0 0 0.7647058823529411   0 0 0 1 0" type="matrix" in="shadowBlur1" result="shadowMatrix1" />
            <feMerge>
                <feMergeNode in="shadowMatrix1" />
                <feMergeNode in="SourceGraphic" />
            </feMerge>
        </filter>
        <filter id="filter-3" x="-50%" y="-50%" width="200%" height="200%">
            <feOffset dx="0.5" dy="0.9" in="SourceAlpha" result="shadowOffset1" />
            <feGaussianBlur in="shadowOffset1" result="shadowBlur1" stdDeviation="1" />
            <feColorMatrix values="0 0 0 0 0.8313725490196079   0 0 0 0 0.788235294117647   0 0 0 0 0.7647058823529411   0 0 0 1 0" type="matrix" in="shadowBlur1" result="shadowMatrix1" />
            <feMerge>
                <feMergeNode in="shadowMatrix1" />
                <feMergeNode in="SourceGraphic" />
            </feMerge>
        </filter>
    </defs>
    <path d="M 8.31 10.39 C 3.71 10.39, -0.01 14.1, -0.01 18.69 L -0.01 74.78 C -0.01 79.37, 3.71 83.09, 8.31 83.09 L 64.46 83.09 C 69.05 83.09, 72.77 79.37, 72.77 74.78 L 72.77 18.69 C 72.77 14.1, 69.05 10.39, 64.46 10.39 L 8.31 10.39 Z" fill="#ffffff" filter="url(#filter-1)" />
    <path d="M10.39,29.08C9.24,29.08,8.31,30.01,8.31,31.16C8.31,31.16,8.31,33.23,8.31,33.23C8.31,34.38,9.24,35.31,10.39,35.31C10.39,35.31,12.47,35.31,12.47,35.31C13.62,35.31,14.55,34.38,14.55,33.23C14.55,33.23,14.55,31.16,14.55,31.16C14.55,30.01,13.62,29.08,12.47,29.08C12.47,29.08,10.39,29.08,10.39,29.08C10.39,29.08,10.39,29.08,10.39,29.08M18.71,29.08C17.56,29.08,16.63,30.01,16.63,31.16C16.63,31.16,16.63,33.23,16.63,33.23C16.63,34.38,17.56,35.31,18.71,35.31C18.71,35.31,20.79,35.31,20.79,35.31C21.93,35.31,22.87,34.38,22.87,33.23C22.87,33.23,22.87,31.16,22.87,31.16C22.87,30.01,21.93,29.08,20.79,29.08C20.79,29.08,18.71,29.08,18.71,29.08C18.71,29.08,18.71,29.08,18.71,29.08M27.02,29.08C25.88,29.08,24.95,30.01,24.95,31.16C24.95,31.16,24.95,33.23,24.95,33.23C24.95,34.38,25.88,35.31,27.02,35.31C27.02,35.31,29.1,35.31,29.1,35.31C30.25,35.31,31.18,34.38,31.18,33.23C31.18,33.23,31.18,31.16,31.18,31.16C31.18,30.01,30.25,29.08,29.1,29.08C29.1,29.08,27.02,29.08,27.02,29.08C27.02,29.08,27.02,29.08,27.02,29.08M35.34,29.08C34.19,29.08,33.26,30.01,33.26,31.16C33.26,31.16,33.26,33.23,33.26,33.23C33.26,34.38,34.19,35.31,35.34,35.31C35.34,35.31,37.42,35.31,37.42,35.31C38.57,35.31,39.5,34.38,39.5,33.23C39.5,33.23,39.5,31.16,39.5,31.16C39.5,30.01,38.57,29.08,37.42,29.08C37.42,29.08,35.34,29.08,35.34,29.08C35.34,29.08,35.34,29.08,35.34,29.08M43.66,29.08C42.51,29.08,41.58,30.01,41.58,31.16C41.58,31.16,41.58,33.23,41.58,33.23C41.58,34.38,42.51,35.31,43.66,35.31C43.66,35.31,45.74,35.31,45.74,35.31C46.89,35.31,47.82,34.38,47.82,33.23C47.82,33.23,47.82,31.16,47.82,31.16C47.82,30.01,46.89,29.08,45.74,29.08C45.74,29.08,43.66,29.08,43.66,29.08C43.66,29.08,43.66,29.08,43.66,29.08M51.98,29.08C50.83,29.08,49.9,30.01,49.9,31.16C49.9,31.16,49.9,33.23,49.9,33.23C49.9,34.38,50.83,35.31,51.98,35.31C51.98,35.31,54.06,35.31,54.06,35.31C55.21,35.31,56.14,34.38,56.14,33.23C56.14,33.23,56.14,31.16,56.14,31.16C56.14,30.01,55.21,29.08,54.06,29.08C54.06,29.08,51.98,29.08,51.98,29.08C51.98,29.08,51.98,29.08,51.98,29.08M60.3,29.08C59.15,29.08,58.22,30.01,58.22,31.16C58.22,31.16,58.22,33.23,58.22,33.23C58.22,34.38,59.15,35.31,60.3,35.31C60.3,35.31,62.38,35.31,62.38,35.31C63.53,35.31,64.46,34.38,64.46,33.23C64.46,33.23,64.46,31.16,64.46,31.16C64.46,30.01,63.53,29.08,62.38,29.08C62.38,29.08,60.3,29.08,60.3,29.08C60.3,29.08,60.3,29.08,60.3,29.08M10.39,37.39C9.24,37.39,8.31,38.32,8.31,39.47C8.31,39.47,8.31,41.54,8.31,41.54C8.31,42.69,9.24,43.62,10.39,43.62C10.39,43.62,12.47,43.62,12.47,43.62C13.62,43.62,14.55,42.69,14.55,41.54C14.55,41.54,14.55,39.47,14.55,39.47C14.55,38.32,13.62,37.39,12.47,37.39C12.47,37.39,10.39,37.39,10.39,37.39C10.39,37.39,10.39,37.39,10.39,37.39M18.71,37.39C17.56,37.39,16.63,38.32,16.63,39.47C16.63,39.47,16.63,41.54,16.63,41.54C16.63,42.69,17.56,43.62,18.71,43.62C18.71,43.62,20.79,43.62,20.79,43.62C21.93,43.62,22.87,42.69,22.87,41.54C22.87,41.54,22.87,39.47,22.87,39.47C22.87,38.32,21.93,37.39,20.79,37.39C20.79,37.39,18.71,37.39,18.71,37.39C18.71,37.39,18.71,37.39,18.71,37.39M27.02,37.39C25.88,37.39,24.95,38.32,24.95,39.47C24.95,39.47,24.95,41.54,24.95,41.54C24.95,42.69,25.88,43.62,27.02,43.62C27.02,43.62,29.1,43.62,29.1,43.62C30.25,43.62,31.18,42.69,31.18,41.54C31.18,41.54,31.18,39.47,31.18,39.47C31.18,38.32,30.25,37.39,29.1,37.39C29.1,37.39,27.02,37.39,27.02,37.39C27.02,37.39,27.02,37.39,27.02,37.39M35.34,37.39C34.19,37.39,33.26,38.32,33.26,39.47C33.26,39.47,33.26,41.54,33.26,41.54C33.26,42.69,34.19,43.62,35.34,43.62C35.34,43.62,37.42,43.62,37.42,43.62C38.57,43.62,39.5,42.69,39.5,41.54C39.5,41.54,39.5,39.47,39.5,39.47C39.5,38.32,38.57,37.39,37.42,37.39C37.42,37.39,35.34,37.39,35.34,37.39C35.34,37.39,35.34,37.39,35.34,37.39M43.66,37.39C42.51,37.39,41.58,38.32,41.58,39.47C41.58,39.47,41.58,41.54,41.58,41.54C41.58,42.69,42.51,43.62,43.66,43.62C43.66,43.62,45.74,43.62,45.74,43.62C46.89,43.62,47.82,42.69,47.82,41.54C47.82,41.54,47.82,39.47,47.82,39.47C47.82,38.32,46.89,37.39,45.74,37.39C45.74,37.39,43.66,37.39,43.66,37.39C43.66,37.39,43.66,37.39,43.66,37.39M51.98,37.39C50.83,37.39,49.9,38.32,49.9,39.47C49.9,39.47,49.9,41.54,49.9,41.54C49.9,42.69,50.83,43.62,51.98,43.62C51.98,43.62,54.06,43.62,54.06,43.62C55.21,43.62,56.14,42.69,56.14,41.54C56.14,41.54,56.14,39.47,56.14,39.47C56.14,38.32,55.21,37.39,54.06,37.39C54.06,37.39,51.98,37.39,51.98,37.39C51.98,37.39,51.98,37.39,51.98,37.39M60.3,37.39C59.15,37.39,58.22,38.32,58.22,39.47C58.22,39.47,58.22,41.54,58.22,41.54C58.22,42.69,59.15,43.62,60.3,43.62C60.3,43.62,62.38,43.62,62.38,43.62C63.53,43.62,64.46,42.69,64.46,41.54C64.46,41.54,64.46,39.47,64.46,39.47C64.46,38.32,63.53,37.39,62.38,37.39C62.38,37.39,60.3,37.39,60.3,37.39C60.3,37.39,60.3,37.39,60.3,37.39M10.39,45.7C9.24,45.7,8.31,46.63,8.31,47.78C8.31,47.78,8.31,49.85,8.31,49.85C8.31,51,9.24,51.93,10.39,51.93C10.39,51.93,12.47,51.93,12.47,51.93C13.62,51.93,14.55,51,14.55,49.85C14.55,49.85,14.55,47.78,14.55,47.78C14.55,46.63,13.62,45.7,12.47,45.7C12.47,45.7,10.39,45.7,10.39,45.7C10.39,45.7,10.39,45.7,10.39,45.7M18.71,45.7C17.56,45.7,16.63,46.63,16.63,47.78C16.63,47.78,16.63,49.85,16.63,49.85C16.63,51,17.56,51.93,18.71,51.93C18.71,51.93,20.79,51.93,20.79,51.93C21.93,51.93,22.87,51,22.87,49.85C22.87,49.85,22.87,47.78,22.87,47.78C22.87,46.63,21.93,45.7,20.79,45.7C20.79,45.7,18.71,45.7,18.71,45.7C18.71,45.7,18.71,45.7,18.71,45.7M27.02,45.7C25.88,45.7,24.95,46.63,24.95,47.78C24.95,47.78,24.95,49.85,24.95,49.85C24.95,51,25.88,51.93,27.02,51.93C27.02,51.93,29.1,51.93,29.1,51.93C30.25,51.93,31.18,51,31.18,49.85C31.18,49.85,31.18,47.78,31.18,47.78C31.18,46.63,30.25,45.7,29.1,45.7C29.1,45.7,27.02,45.7,27.02,45.7C27.02,45.7,27.02,45.7,27.02,45.7M35.34,45.7C34.19,45.7,33.26,46.63,33.26,47.78C33.26,47.78,33.26,49.85,33.26,49.85C33.26,51,34.19,51.93,35.34,51.93C35.34,51.93,37.42,51.93,37.42,51.93C38.57,51.93,39.5,51,39.5,49.85C39.5,49.85,39.5,47.78,39.5,47.78C39.5,46.63,38.57,45.7,37.42,45.7C37.42,45.7,35.34,45.7,35.34,45.7C35.34,45.7,35.34,45.7,35.34,45.7M51.98,45.7C50.83,45.7,49.9,46.63,49.9,47.78C49.9,47.78,49.9,49.85,49.9,49.85C49.9,51,50.83,51.93,51.98,51.93C51.98,51.93,54.06,51.93,54.06,51.93C55.21,51.93,56.14,51,56.14,49.85C56.14,49.85,56.14,47.78,56.14,47.78C56.14,46.63,55.21,45.7,54.06,45.7C54.06,45.7,51.98,45.7,51.98,45.7C51.98,45.7,51.98,45.7,51.98,45.7M60.3,45.7C59.15,45.7,58.22,46.63,58.22,47.78C58.22,47.78,58.22,49.85,58.22,49.85C58.22,51,59.15,51.93,60.3,51.93C60.3,51.93,62.38,51.93,62.38,51.93C63.53,51.93,64.46,51,64.46,49.85C64.46,49.85,64.46,47.78,64.46,47.78C64.46,46.63,63.53,45.7,62.38,45.7C62.38,45.7,60.3,45.7,60.3,45.7C60.3,45.7,60.3,45.7,60.3,45.7M10.39,54.01C9.24,54.01,8.31,54.94,8.31,56.08C8.31,56.08,8.31,58.16,8.31,58.16C8.31,59.31,9.24,60.24,10.39,60.24C10.39,60.24,12.47,60.24,12.47,60.24C13.62,60.24,14.55,59.31,14.55,58.16C14.55,58.16,14.55,56.08,14.55,56.08C14.55,54.94,13.62,54.01,12.47,54.01C12.47,54.01,10.39,54.01,10.39,54.01C10.39,54.01,10.39,54.01,10.39,54.01M18.71,54.01C17.56,54.01,16.63,54.94,16.63,56.08C16.63,56.08,16.63,58.16,16.63,58.16C16.63,59.31,17.56,60.24,18.71,60.24C18.71,60.24,20.79,60.24,20.79,60.24C21.93,60.24,22.87,59.31,22.87,58.16C22.87,58.16,22.87,56.08,22.87,56.08C22.87,54.94,21.93,54.01,20.79,54.01C20.79,54.01,18.71,54.01,18.71,54.01C18.71,54.01,18.71,54.01,18.71,54.01M27.02,54.01C25.88,54.01,24.95,54.94,24.95,56.08C24.95,56.08,24.95,58.16,24.95,58.16C24.95,59.31,25.88,60.24,27.02,60.24C27.02,60.24,29.1,60.24,29.1,60.24C30.25,60.24,31.18,59.31,31.18,58.16C31.18,58.16,31.18,56.08,31.18,56.08C31.18,54.94,30.25,54.01,29.1,54.01C29.1,54.01,27.02,54.01,27.02,54.01C27.02,54.01,27.02,54.01,27.02,54.01M35.34,54.01C34.19,54.01,33.26,54.94,33.26,56.08C33.26,56.08,33.26,58.16,33.26,58.16C33.26,59.31,34.19,60.24,35.34,60.24C35.34,60.24,37.42,60.24,37.42,60.24C38.57,60.24,39.5,59.31,39.5,58.16C39.5,58.16,39.5,56.08,39.5,56.08C39.5,54.94,38.57,54.01,37.42,54.01C37.42,54.01,35.34,54.01,35.34,54.01C35.34,54.01,35.34,54.01,35.34,54.01M43.66,54.01C42.51,54.01,41.58,54.94,41.58,56.08C41.58,56.08,41.58,58.16,41.58,58.16C41.58,59.31,42.51,60.24,43.66,60.24C43.66,60.24,45.74,60.24,45.74,60.24C46.89,60.24,47.82,59.31,47.82,58.16C47.82,58.16,47.82,56.08,47.82,56.08C47.82,54.94,46.89,54.01,45.74,54.01C45.74,54.01,43.66,54.01,43.66,54.01C43.66,54.01,43.66,54.01,43.66,54.01M51.98,54.01C50.83,54.01,49.9,54.94,49.9,56.08C49.9,56.08,49.9,58.16,49.9,58.16C49.9,59.31,50.83,60.24,51.98,60.24C51.98,60.24,54.06,60.24,54.06,60.24C55.21,60.24,56.14,59.31,56.14,58.16C56.14,58.16,56.14,56.08,56.14,56.08C56.14,54.94,55.21,54.01,54.06,54.01C54.06,54.01,51.98,54.01,51.98,54.01C51.98,54.01,51.98,54.01,51.98,54.01M60.3,54.01C59.15,54.01,58.22,54.94,58.22,56.08C58.22,56.08,58.22,58.16,58.22,58.16C58.22,59.31,59.15,60.24,60.3,60.24C60.3,60.24,62.38,60.24,62.38,60.24C63.53,60.24,64.46,59.31,64.46,58.16C64.46,58.16,64.46,56.08,64.46,56.08C64.46,54.94,63.53,54.01,62.38,54.01C62.38,54.01,60.3,54.01,60.3,54.01C60.3,54.01,60.3,54.01,60.3,54.01M10.39,62.32C9.24,62.32,8.31,63.25,8.31,64.39C8.31,64.39,8.31,66.47,8.31,66.47C8.31,67.62,9.24,68.55,10.39,68.55C10.39,68.55,12.47,68.55,12.47,68.55C13.62,68.55,14.55,67.62,14.55,66.47C14.55,66.47,14.55,64.39,14.55,64.39C14.55,63.25,13.62,62.32,12.47,62.32C12.47,62.32,10.39,62.32,10.39,62.32C10.39,62.32,10.39,62.32,10.39,62.32M18.71,62.32C17.56,62.32,16.63,63.25,16.63,64.39C16.63,64.39,16.63,66.47,16.63,66.47C16.63,67.62,17.56,68.55,18.71,68.55C18.71,68.55,20.79,68.55,20.79,68.55C21.93,68.55,22.87,67.62,22.87,66.47C22.87,66.47,22.87,64.39,22.87,64.39C22.87,63.25,21.93,62.32,20.79,62.32C20.79,62.32,18.71,62.32,18.71,62.32C18.71,62.32,18.71,62.32,18.71,62.32M27.02,62.32C25.88,62.32,24.95,63.25,24.95,64.39C24.95,64.39,24.95,66.47,24.95,66.47C24.95,67.62,25.88,68.55,27.02,68.55C27.02,68.55,29.1,68.55,29.1,68.55C30.25,68.55,31.18,67.62,31.18,66.47C31.18,66.47,31.18,64.39,31.18,64.39C31.18,63.25,30.25,62.32,29.1,62.32C29.1,62.32,27.02,62.32,27.02,62.32C27.02,62.32,27.02,62.32,27.02,62.32M35.34,62.32C34.19,62.32,33.26,63.25,33.26,64.39C33.26,64.39,33.26,66.47,33.26,66.47C33.26,67.62,34.19,68.55,35.34,68.55C35.34,68.55,37.42,68.55,37.42,68.55C38.57,68.55,39.5,67.62,39.5,66.47C39.5,66.47,39.5,64.39,39.5,64.39C39.5,63.25,38.57,62.32,37.42,62.32C37.42,62.32,35.34,62.32,35.34,62.32C35.34,62.32,35.34,62.32,35.34,62.32" fill="#e4ddd9" />
    <path d="M 43.66 45.7 C 42.51 45.7, 41.58 46.63, 41.58 47.78 L 41.58 49.85 C 41.58 51, 42.51 51.93, 43.66 51.93 L 45.74 51.93 C 46.89 51.93, 47.82 51, 47.82 49.85 L 47.82 47.78 C 47.82 46.63, 46.89 45.7, 45.74 45.7 L 43.66 45.7 Z" fill="#0badff" />
    <path d="M 15.59 0 C 13.86 0, 12.47 1.39, 12.47 3.11 L 12.47 11.42 C 12.47 13.14, 13.86 14.54, 15.59 14.54 C 17.31 14.54, 18.71 13.14, 18.71 11.42 L 18.71 3.11 C 18.71 1.39, 17.31 0, 15.59 0 Z" fill="#ffffff" filter="url(#filter-2)" />
    <path d="M 57.18 0 C 55.45 0, 54.06 1.39, 54.06 3.11 L 54.06 11.42 C 54.06 13.14, 55.45 14.54, 57.18 14.54 C 58.9 14.54, 60.3 13.14, 60.3 11.42 L 60.3 3.11 C 60.3 1.39, 58.9 0, 57.18 0 Z" fill="#ffffff" filter="url(#filter-3)" />
</svg>